<?xml version="1.0" encoding="utf-8"?>
<!-- Generator: Adobe Illustrator 19.0.0, SVG Export Plug-In . SVG Version: 6.00 Build 0)  -->
<svg version="1.1" id="Camada_1" xmlns="http://www.w3.org/2000/svg" xmlns:xlink="http://www.w3.org/1999/xlink" x="0px" y="0px"
	 viewBox="0 0 612 792" style="enable-background:new 0 0 612 792;" xml:space="preserve">
<style type="text/css">
	.st0{fill:#EBC22E;}
	.st1{fill:#BC221A;}
	.st2{fill:#AC891E;}
	.st3{fill:#93201D;}
	.st4{fill:#D9A832;}
	.st5{fill:#AC2A25;}
</style>
<g id="XMLID_3_">
	<path id="XMLID_16_" class="st0" d="M430.2,373.7c-2.9-1.6-4.8-2.6-6.8-3.7c2.7-3.2,6.5-4.5,9.8-3c17.4,7.7,34.7,15.4,51.9,23.3
		c1.4,0.6,2.8,2.8,2.8,4.3c0.3,7.1,0.1,14.2,0.1,21.2c0,2.9-1.8,4.2-4.1,5.3c-15.9,7.2-31.8,14.5-47.6,21.7
		c-22.2,10.2-44.4,20.3-66.6,30.5c-18.4,8.4-36.8,17-55.3,25.1c-2.1,0.9-5.3,0.6-7.5-0.3c-6.3-2.6-12.4-5.7-18.6-8.7
		c-37.9-18.1-75.8-36.1-113.7-54.2c-15.6-7.4-31.3-14.9-47-22.2c-2.5-1.2-3.8-2.7-3.8-5.5c0-6.7,0.1-13.4,0-20.1
		c0-2.8,1.2-4.4,3.8-5.4c17.3-6.9,34.5-13.8,51.7-20.8c4.1-1.7,7.3,0.2,11.2,2.6c-2.9,1.4-5.3,2.6-8.5,4.1c1.6,1,2.6,1.9,3.8,2.4
		c28.1,13.4,56.2,26.7,84.3,40c11.7,5.5,23.3,11,34.9,16.7c3.1,1.5,5.8,1.7,9,0.2c37-17,74.1-33.9,111.1-50.8
		C426.7,375.8,428,374.9,430.2,373.7z"/>
	<path id="XMLID_15_" class="st1" d="M384.5,341.6c-2.8-1.6-4.7-2.7-6.9-4.1c4-2.8,7.4-4.3,12.1-2.1c15.8,7.3,31.8,14.5,47.8,21.3
		c4.9,2.1,7.1,4.8,6.7,10.2c-0.5,5.4-0.2,10.9-0.1,16.3c0.1,3.2-1.1,5.1-4.1,6.5c-33.2,15-66.3,30.2-99.4,45.3
		c-9,4.1-18,8.1-26.9,12.3c-2.8,1.3-5.2,1.2-8-0.1c-24.4-11.7-48.9-23.2-73.3-34.8c-19.7-9.3-39.3-18.7-59-27.9
		c-4.2-1.9-5.9-4.5-5.6-9.1c0.3-5.8,0.1-11.6,0.1-17.5c0-2.9,1.2-4.7,3.9-5.8c17-6.8,34.1-13.6,51-20.6c4.1-1.7,7.3-0.2,11.1,2.4
		c-2.1,1.3-3.9,2.3-6.2,3.8c1.6,1,2.7,1.9,4,2.5c24.4,11.6,48.9,23.2,73.3,34.9c2.9,1.4,5.3,0.8,7.9-0.4c13-6,26-11.9,39-17.9
		c9.5-4.4,19.1-8.8,28.6-13.2C381.6,343.2,382.7,342.6,384.5,341.6z"/>
	<path id="XMLID_14_" class="st0" d="M397,346.5c0,3.4,0,6.8,0,10.2c0,2.6-1.2,4.2-3.5,5.3c-26.7,12.2-53.4,24.3-80,36.6
		c-3.6,1.7-6.8,1.5-10.4-0.3c-27.9-13.4-55.9-26.6-83.9-39.9c-2.7-1.3-4.2-3-4.2-6.1c0.1-6.6,0.1-13.1,0-19.7c0-3,1.3-4.6,4-5.7
		c27.9-11.2,55.8-22.5,83.8-33.5c1.9-0.7,4.6-0.7,6.5,0.1c28.1,12.3,56.2,24.8,84.3,37.3c2.4,1.1,3.5,2.7,3.5,5.3
		C397,339.6,397,343,397,346.5z"/>
	<polygon id="XMLID_13_" class="st2" points="395.2,331.9 394.4,333.5 308.6,370.3 308.6,399.7 309.8,399.7 311,399.4 312.3,399 
		313.3,398.7 397.3,360.3 397,335.2 396.4,333.4 	"/>
	<polygon id="XMLID_12_" class="st3" points="442.1,359.7 441.6,360.6 394.4,381.2 308.6,418.8 308.6,448.2 310,448.3 311.4,448.2 
		312.9,447.7 315.5,446.6 444.3,388 444.3,365.1 443.7,362 	"/>
	<polyline id="XMLID_11_" class="st2" points="308.9,468.3 309.4,498.8 310.6,499 311.6,499 313.2,498.8 314.5,498.4 323.9,494.2 
		336.8,488.4 339.4,487.2 485.1,420.5 486.6,419.4 487.4,418.3 487.9,417.3 488.1,415.9 487.9,394.1 487.2,392.3 486,390.8 	"/>
	<polyline id="XMLID_1_" class="st4" points="308.9,468.3 309.4,498.8 308.2,498.6 306.4,498 303.3,496.6 297.9,494.1 289.4,490 
		276.6,484 274,482.8 126.9,412.9 125.3,411.8 124.5,410.7 124.1,409.7 123.9,408.3 123.9,386.9 124.1,385.8 124.4,385 124.9,384.1 
		125.4,383.5 125.8,383.2 	"/>
	<polygon id="XMLID_2_" class="st4" points="216.7,328.3 217.1,329.3 308.6,370.3 308.6,399.7 307.1,399.7 306,399.4 304.6,399 
		303.6,398.7 219.8,358.8 217,357.2 215.7,355.7 215.2,354.5 215,352.9 215,332.1 215.1,331.2 215.3,330.4 215.6,329.6 216.1,329 	
		"/>
	<polyline id="XMLID_4_" class="st5" points="308.6,418.8 308.6,448.2 306.9,447.8 304.5,446.7 298.3,443.8 295.7,442.5 
		171.9,383.8 170.3,382.6 168.9,380.9 168.1,379.1 167.8,377.3 167.9,357.4 168.1,356.1 168.5,355 169.2,354.1 170.4,353 
		171.7,355.3 	"/>
</g>
</svg>
