<svg xmlns="http://www.w3.org/2000/svg" xmlns:xlink="http://www.w3.org/1999/xlink" version="1.1" id="Hy5s98I6M" x="0px" y="0px" viewBox="97.0588 266.063 424.208 248.416" style="enable-background:new 0 0 612 792;" xml:space="preserve" width="835px" height="489px"  preserveAspectRatio="xMidYMid meet"><rect id="svgEditorBackground" x="0" y="0" width="600" height="600" style="fill:none;stroke:none;"/><style>@-webkit-keyframes ByKcs5LLaG_rkpL0U8TG_Animation{10%{-webkit-transform: translate(0px, -8px);transform: translate(0px, -8px);}20%{-webkit-transform: translate(0px, 0px);transform: translate(0px, 0px);}70%{-webkit-transform: translate(0px, 0px);transform: translate(0px, 0px);}80%{-webkit-transform: translate(0px, -8px);transform: translate(0px, -8px);}0%{-webkit-transform: translate(0px, -8px);transform: translate(0px, -8px);}100%{-webkit-transform: translate(0px, -8px);transform: translate(0px, -8px);}}@keyframes ByKcs5LLaG_rkpL0U8TG_Animation{10%{-webkit-transform: translate(0px, -8px);transform: translate(0px, -8px);}20%{-webkit-transform: translate(0px, 0px);transform: translate(0px, 0px);}70%{-webkit-transform: translate(0px, 0px);transform: translate(0px, 0px);}80%{-webkit-transform: translate(0px, -8px);transform: translate(0px, -8px);}0%{-webkit-transform: translate(0px, -8px);transform: translate(0px, -8px);}100%{-webkit-transform: translate(0px, -8px);transform: translate(0px, -8px);}}@-webkit-keyframes ByKcs5LLaG_Animation{10%{opacity: 0;}20%{opacity: 1;}70%{opacity: 1;}80%{opacity: 0;}0%{opacity: 0;}100%{opacity: 0;}}@keyframes ByKcs5LLaG_Animation{10%{opacity: 0;}20%{opacity: 1;}70%{opacity: 1;}80%{opacity: 0;}0%{opacity: 0;}100%{opacity: 0;}}@-webkit-keyframes H1dqic8U6f_rkX5TLL6z_Animation{0%{-webkit-transform: translate(0px, -20px);transform: translate(0px, -20px);}10%{-webkit-transform: translate(0px, 0px);transform: translate(0px, 0px);}80%{-webkit-transform: translate(0px, 0px);transform: translate(0px, 0px);}90%{-webkit-transform: translate(0px, -20px);transform: translate(0px, -20px);}100%{-webkit-transform: translate(0px, -20px);transform: translate(0px, -20px);}}@keyframes H1dqic8U6f_rkX5TLL6z_Animation{0%{-webkit-transform: translate(0px, -20px);transform: translate(0px, -20px);}10%{-webkit-transform: translate(0px, 0px);transform: translate(0px, 0px);}80%{-webkit-transform: translate(0px, 0px);transform: translate(0px, 0px);}90%{-webkit-transform: translate(0px, -20px);transform: translate(0px, -20px);}100%{-webkit-transform: translate(0px, -20px);transform: translate(0px, -20px);}}@-webkit-keyframes H1dqic8U6f_Animation{0%{opacity: 0;}10%{opacity: 1;}80%{opacity: 1;}90%{opacity: 0;}100%{opacity: 0;}}@keyframes H1dqic8U6f_Animation{0%{opacity: 0;}10%{opacity: 1;}80%{opacity: 1;}90%{opacity: 0;}100%{opacity: 0;}}@-webkit-keyframes rywqsqLLpz_Animation{20%{opacity: 0;}30%{opacity: 1;}60%{opacity: 1;}70%{opacity: 0;}0%{opacity: 0;}100%{opacity: 0;}}@keyframes rywqsqLLpz_Animation{20%{opacity: 0;}30%{opacity: 1;}60%{opacity: 1;}70%{opacity: 0;}0%{opacity: 0;}100%{opacity: 0;}}@-webkit-keyframes rywqsqLLpz_H14HyPIaM_Animation{20%{-webkit-transform: translate(0px, -10px);transform: translate(0px, -10px);}30%{-webkit-transform: translate(0px, 0px);transform: translate(0px, 0px);}60%{-webkit-transform: translate(0px, 0px);transform: translate(0px, 0px);}70%{-webkit-transform: translate(0px, -10px);transform: translate(0px, -10px);}0%{-webkit-transform: translate(0px, -10px);transform: translate(0px, -10px);}100%{-webkit-transform: translate(0px, -10px);transform: translate(0px, -10px);}}@keyframes rywqsqLLpz_H14HyPIaM_Animation{20%{-webkit-transform: translate(0px, -10px);transform: translate(0px, -10px);}30%{-webkit-transform: translate(0px, 0px);transform: translate(0px, 0px);}60%{-webkit-transform: translate(0px, 0px);transform: translate(0px, 0px);}70%{-webkit-transform: translate(0px, -10px);transform: translate(0px, -10px);}0%{-webkit-transform: translate(0px, -10px);transform: translate(0px, -10px);}100%{-webkit-transform: translate(0px, -10px);transform: translate(0px, -10px);}}@-webkit-keyframes Bk85j58Lpf_Animation{20%{opacity: 0;}30%{opacity: 1;}60%{opacity: 1;}70%{opacity: 0;}0%{opacity: 0;}100%{opacity: 0;}}@keyframes Bk85j58Lpf_Animation{20%{opacity: 0;}30%{opacity: 1;}60%{opacity: 1;}70%{opacity: 0;}0%{opacity: 0;}100%{opacity: 0;}}@-webkit-keyframes Bk85j58Lpf_H1aPkPI6z_Animation{20%{-webkit-transform: translate(0px, -10px);transform: translate(0px, -10px);}30%{-webkit-transform: translate(0px, 0px);transform: translate(0px, 0px);}60%{-webkit-transform: translate(0px, 0px);transform: translate(0px, 0px);}70%{-webkit-transform: translate(0px, -10px);transform: translate(0px, -10px);}0%{-webkit-transform: translate(0px, -10px);transform: translate(0px, -10px);}100%{-webkit-transform: translate(0px, -10px);transform: translate(0px, -10px);}}@keyframes Bk85j58Lpf_H1aPkPI6z_Animation{20%{-webkit-transform: translate(0px, -10px);transform: translate(0px, -10px);}30%{-webkit-transform: translate(0px, 0px);transform: translate(0px, 0px);}60%{-webkit-transform: translate(0px, 0px);transform: translate(0px, 0px);}70%{-webkit-transform: translate(0px, -10px);transform: translate(0px, -10px);}0%{-webkit-transform: translate(0px, -10px);transform: translate(0px, -10px);}100%{-webkit-transform: translate(0px, -10px);transform: translate(0px, -10px);}}@-webkit-keyframes HySciqLU6G_Animation{10%{opacity: 0;}20%{opacity: 1;}70%{opacity: 1;}80%{opacity: 0;}0%{opacity: 0;}100%{opacity: 0;}}@keyframes HySciqLU6G_Animation{10%{opacity: 0;}20%{opacity: 1;}70%{opacity: 1;}80%{opacity: 0;}0%{opacity: 0;}100%{opacity: 0;}}@-webkit-keyframes HySciqLU6G_HkIpR8ITG_Animation{10%{-webkit-transform: translate(0px, -8px);transform: translate(0px, -8px);}20%{-webkit-transform: translate(0px, 0px);transform: translate(0px, 0px);}70%{-webkit-transform: translate(0px, 0px);transform: translate(0px, 0px);}80%{-webkit-transform: translate(0px, -8px);transform: translate(0px, -8px);}0%{-webkit-transform: translate(0px, -8px);transform: translate(0px, -8px);}100%{-webkit-transform: translate(0px, -8px);transform: translate(0px, -8px);}}@keyframes HySciqLU6G_HkIpR8ITG_Animation{10%{-webkit-transform: translate(0px, -8px);transform: translate(0px, -8px);}20%{-webkit-transform: translate(0px, 0px);transform: translate(0px, 0px);}70%{-webkit-transform: translate(0px, 0px);transform: translate(0px, 0px);}80%{-webkit-transform: translate(0px, -8px);transform: translate(0px, -8px);}0%{-webkit-transform: translate(0px, -8px);transform: translate(0px, -8px);}100%{-webkit-transform: translate(0px, -8px);transform: translate(0px, -8px);}}@-webkit-keyframes H14cscLI6G_SJVz6ILTM_Animation{0%{-webkit-transform: translate(0px, -20px);transform: translate(0px, -20px);}10%{-webkit-transform: translate(0px, 0px);transform: translate(0px, 0px);}80%{-webkit-transform: translate(0px, 0px);transform: translate(0px, 0px);}90%{-webkit-transform: translate(0px, -20px);transform: translate(0px, -20px);}100%{-webkit-transform: translate(0px, -20px);transform: translate(0px, -20px);}}@keyframes H14cscLI6G_SJVz6ILTM_Animation{0%{-webkit-transform: translate(0px, -20px);transform: translate(0px, -20px);}10%{-webkit-transform: translate(0px, 0px);transform: translate(0px, 0px);}80%{-webkit-transform: translate(0px, 0px);transform: translate(0px, 0px);}90%{-webkit-transform: translate(0px, -20px);transform: translate(0px, -20px);}100%{-webkit-transform: translate(0px, -20px);transform: translate(0px, -20px);}}@-webkit-keyframes H14cscLI6G_Animation{0%{opacity: 0;}10%{opacity: 1;}80%{opacity: 1;}90%{opacity: 0;}100%{opacity: 0;}}@keyframes H14cscLI6G_Animation{0%{opacity: 0;}10%{opacity: 1;}80%{opacity: 1;}90%{opacity: 0;}100%{opacity: 0;}}@-webkit-keyframes BkQ9s58ITz_SkCy2ULTG_Animation{0%{-webkit-transform: translate(0px, -20px);transform: translate(0px, -20px);}10%{-webkit-transform: translate(0px, 0px);transform: translate(0px, 0px);}80%{-webkit-transform: translate(0px, 0px);transform: translate(0px, 0px);}90%{-webkit-transform: translate(0px, -20px);transform: translate(0px, -20px);}100%{-webkit-transform: translate(0px, -20px);transform: translate(0px, -20px);}}@keyframes BkQ9s58ITz_SkCy2ULTG_Animation{0%{-webkit-transform: translate(0px, -20px);transform: translate(0px, -20px);}10%{-webkit-transform: translate(0px, 0px);transform: translate(0px, 0px);}80%{-webkit-transform: translate(0px, 0px);transform: translate(0px, 0px);}90%{-webkit-transform: translate(0px, -20px);transform: translate(0px, -20px);}100%{-webkit-transform: translate(0px, -20px);transform: translate(0px, -20px);}}@-webkit-keyframes BkQ9s58ITz_Animation{0%{opacity: 0;}10%{opacity: 1;}80%{opacity: 1;}90%{opacity: 0;}100%{opacity: 0;}}@keyframes BkQ9s58ITz_Animation{0%{opacity: 0;}10%{opacity: 1;}80%{opacity: 1;}90%{opacity: 0;}100%{opacity: 0;}}@-webkit-keyframes r1Mqj9L8aM_Animation{10%{opacity: 0;}20%{opacity: 1;}70%{opacity: 1;}80%{opacity: 0;}0%{opacity: 0;}100%{opacity: 0;}}@keyframes r1Mqj9L8aM_Animation{10%{opacity: 0;}20%{opacity: 1;}70%{opacity: 1;}80%{opacity: 0;}0%{opacity: 0;}100%{opacity: 0;}}@-webkit-keyframes r1Mqj9L8aM_B1KkRU8pG_Animation{10%{-webkit-transform: translate(0px, -8px);transform: translate(0px, -8px);}20%{-webkit-transform: translate(0px, 0px);transform: translate(0px, 0px);}70%{-webkit-transform: translate(0px, 0px);transform: translate(0px, 0px);}80%{-webkit-transform: translate(0px, -8px);transform: translate(0px, -8px);}0%{-webkit-transform: translate(0px, -8px);transform: translate(0px, -8px);}100%{-webkit-transform: translate(0px, -8px);transform: translate(0px, -8px);}}@keyframes r1Mqj9L8aM_B1KkRU8pG_Animation{10%{-webkit-transform: translate(0px, -8px);transform: translate(0px, -8px);}20%{-webkit-transform: translate(0px, 0px);transform: translate(0px, 0px);}70%{-webkit-transform: translate(0px, 0px);transform: translate(0px, 0px);}80%{-webkit-transform: translate(0px, -8px);transform: translate(0px, -8px);}0%{-webkit-transform: translate(0px, -8px);transform: translate(0px, -8px);}100%{-webkit-transform: translate(0px, -8px);transform: translate(0px, -8px);}}@-webkit-keyframes H1bqo9LITz_Animation{20%{opacity: 0;}30%{opacity: 1;}60%{opacity: 1;}70%{opacity: 0;}0%{opacity: 0;}100%{opacity: 0;}}@keyframes H1bqo9LITz_Animation{20%{opacity: 0;}30%{opacity: 1;}60%{opacity: 1;}70%{opacity: 0;}0%{opacity: 0;}100%{opacity: 0;}}@-webkit-keyframes H1bqo9LITz_HyYx1PITM_Animation{20%{-webkit-transform: translate(0px, -10px);transform: translate(0px, -10px);}30%{-webkit-transform: translate(0px, 0px);transform: translate(0px, 0px);}60%{-webkit-transform: translate(0px, 0px);transform: translate(0px, 0px);}70%{-webkit-transform: translate(0px, -10px);transform: translate(0px, -10px);}0%{-webkit-transform: translate(0px, -10px);transform: translate(0px, -10px);}100%{-webkit-transform: translate(0px, -10px);transform: translate(0px, -10px);}}@keyframes H1bqo9LITz_HyYx1PITM_Animation{20%{-webkit-transform: translate(0px, -10px);transform: translate(0px, -10px);}30%{-webkit-transform: translate(0px, 0px);transform: translate(0px, 0px);}60%{-webkit-transform: translate(0px, 0px);transform: translate(0px, 0px);}70%{-webkit-transform: translate(0px, -10px);transform: translate(0px, -10px);}0%{-webkit-transform: translate(0px, -10px);transform: translate(0px, -10px);}100%{-webkit-transform: translate(0px, -10px);transform: translate(0px, -10px);}}#Hy5s98I6M *{-webkit-animation-duration: 5s;animation-duration: 5s;-webkit-animation-iteration-count: infinite;animation-iteration-count: infinite;-webkit-animation-timing-function: cubic-bezier(0, 0, 1, 1);animation-timing-function: cubic-bezier(0, 0, 1, 1);}#H1bqo9LITz{fill: #EBC22E;-webkit-animation-name: H1bqo9LITz_Animation;animation-name: H1bqo9LITz_Animation;-webkit-transform-origin: 50% 50%;transform-origin: 50% 50%;transform-box: fill-box;opacity: 0;}#r1Mqj9L8aM{fill: #BC221A;-webkit-animation-name: r1Mqj9L8aM_Animation;animation-name: r1Mqj9L8aM_Animation;-webkit-transform-origin: 50% 50%;transform-origin: 50% 50%;transform-box: fill-box;opacity: 0;}#BkQ9s58ITz{fill: #EBC22E;-webkit-animation-name: BkQ9s58ITz_Animation;animation-name: BkQ9s58ITz_Animation;-webkit-transform-origin: 50% 50%;transform-origin: 50% 50%;transform-box: fill-box;opacity: 0;}#H14cscLI6G{fill: #AC891E;-webkit-animation-name: H14cscLI6G_Animation;animation-name: H14cscLI6G_Animation;-webkit-transform-origin: 50% 50%;transform-origin: 50% 50%;transform-box: fill-box;opacity: 0;}#HySciqLU6G{fill: #93201D;-webkit-animation-name: HySciqLU6G_Animation;animation-name: HySciqLU6G_Animation;-webkit-transform-origin: 50% 50%;transform-origin: 50% 50%;transform-box: fill-box;opacity: 0;}#Bk85j58Lpf{fill: #AC891E;-webkit-animation-name: Bk85j58Lpf_Animation;animation-name: Bk85j58Lpf_Animation;-webkit-transform-origin: 50% 50%;transform-origin: 50% 50%;transform-box: fill-box;opacity: 0;}#rywqsqLLpz{fill: #D9A832;-webkit-animation-name: rywqsqLLpz_Animation;animation-name: rywqsqLLpz_Animation;-webkit-transform-origin: 50% 50%;transform-origin: 50% 50%;transform-box: fill-box;opacity: 0;}#H1dqic8U6f{fill: #D9A832;-webkit-animation-name: H1dqic8U6f_Animation;animation-name: H1dqic8U6f_Animation;-webkit-transform-origin: 50% 50%;transform-origin: 50% 50%;transform-box: fill-box;opacity: 0;}#ByKcs5LLaG{fill: #AC2A25;-webkit-animation-name: ByKcs5LLaG_Animation;animation-name: ByKcs5LLaG_Animation;-webkit-transform-origin: 50% 50%;transform-origin: 50% 50%;transform-box: fill-box;opacity: 0;}#H1bqo9LITz_HyYx1PITM{-webkit-animation-name: H1bqo9LITz_HyYx1PITM_Animation;animation-name: H1bqo9LITz_HyYx1PITM_Animation;-webkit-transform-origin: 50% 50%;transform-origin: 50% 50%;transform-box: fill-box;-webkit-transform: translate(0px, -10px);transform: translate(0px, -10px);}#r1Mqj9L8aM_B1KkRU8pG{-webkit-animation-name: r1Mqj9L8aM_B1KkRU8pG_Animation;animation-name: r1Mqj9L8aM_B1KkRU8pG_Animation;-webkit-transform-origin: 50% 50%;transform-origin: 50% 50%;transform-box: fill-box;-webkit-transform: translate(0px, -8px);transform: translate(0px, -8px);}#BkQ9s58ITz_SkCy2ULTG{-webkit-animation-name: BkQ9s58ITz_SkCy2ULTG_Animation;animation-name: BkQ9s58ITz_SkCy2ULTG_Animation;-webkit-transform-origin: 50% 50%;transform-origin: 50% 50%;transform-box: fill-box;-webkit-transform: translate(0px, -20px);transform: translate(0px, -20px);}#H14cscLI6G_SJVz6ILTM{-webkit-animation-name: H14cscLI6G_SJVz6ILTM_Animation;animation-name: H14cscLI6G_SJVz6ILTM_Animation;-webkit-transform-origin: 50% 50%;transform-origin: 50% 50%;transform-box: fill-box;-webkit-transform: translate(0px, -20px);transform: translate(0px, -20px);}#HySciqLU6G_HkIpR8ITG{-webkit-animation-name: HySciqLU6G_HkIpR8ITG_Animation;animation-name: HySciqLU6G_HkIpR8ITG_Animation;-webkit-transform-origin: 50% 50%;transform-origin: 50% 50%;transform-box: fill-box;-webkit-transform: translate(0px, -8px);transform: translate(0px, -8px);}#Bk85j58Lpf_H1aPkPI6z{-webkit-animation-name: Bk85j58Lpf_H1aPkPI6z_Animation;animation-name: Bk85j58Lpf_H1aPkPI6z_Animation;-webkit-transform-origin: 50% 50%;transform-origin: 50% 50%;transform-box: fill-box;-webkit-transform: translate(0px, -10px);transform: translate(0px, -10px);}#rywqsqLLpz_H14HyPIaM{-webkit-animation-name: rywqsqLLpz_H14HyPIaM_Animation;animation-name: rywqsqLLpz_H14HyPIaM_Animation;-webkit-transform-origin: 50% 50%;transform-origin: 50% 50%;transform-box: fill-box;-webkit-transform: translate(0px, -10px);transform: translate(0px, -10px);}#H1dqic8U6f_rkX5TLL6z{-webkit-animation-name: H1dqic8U6f_rkX5TLL6z_Animation;animation-name: H1dqic8U6f_rkX5TLL6z_Animation;-webkit-transform-origin: 50% 50%;transform-origin: 50% 50%;transform-box: fill-box;-webkit-transform: translate(0px, -20px);transform: translate(0px, -20px);}#ByKcs5LLaG_rkpL0U8TG{-webkit-animation-name: ByKcs5LLaG_rkpL0U8TG_Animation;animation-name: ByKcs5LLaG_rkpL0U8TG_Animation;-webkit-transform-origin: 50% 50%;transform-origin: 50% 50%;transform-box: fill-box;-webkit-transform: translate(0px, -8px);transform: translate(0px, -8px);}</style>

<g id="rye5i98Iaf">
	<g id="H1bqo9LITz_HyYx1PITM" data-animator-group="true" data-animator-type="0"><path id="H1bqo9LITz" d="M430.2,373.7c-2.9-1.6-4.8-2.6-6.8-3.7c2.7-3.2,6.5-4.5,9.8-3c17.4,7.7,34.7,15.4,51.9,23.3&#10;&#9;&#9;c1.4,0.6,2.8,2.8,2.8,4.3c0.3,7.1,0.1,14.2,0.1,21.2c0,2.9-1.8,4.2-4.1,5.3c-15.9,7.2-31.8,14.5-47.6,21.7&#10;&#9;&#9;c-22.2,10.2-44.4,20.3-66.6,30.5c-18.4,8.4-36.8,17-55.3,25.1c-2.1,0.9-5.3,0.6-7.5-0.3c-6.3-2.6-12.4-5.7-18.6-8.7&#10;&#9;&#9;c-37.9-18.1-75.8-36.1-113.7-54.2c-15.6-7.4-31.3-14.9-47-22.2c-2.5-1.2-3.8-2.7-3.8-5.5c0-6.7,0.1-13.4,0-20.1&#10;&#9;&#9;c0-2.8,1.2-4.4,3.8-5.4c17.3-6.9,34.5-13.8,51.7-20.8c4.1-1.7,7.3,0.2,11.2,2.6c-2.9,1.4-5.3,2.6-8.5,4.1c1.6,1,2.6,1.9,3.8,2.4&#10;&#9;&#9;c28.1,13.4,56.2,26.7,84.3,40c11.7,5.5,23.3,11,34.9,16.7c3.1,1.5,5.8,1.7,9,0.2c37-17,74.1-33.9,111.1-50.8&#10;&#9;&#9;C426.7,375.8,428,374.9,430.2,373.7z"/></g>
	<g id="r1Mqj9L8aM_B1KkRU8pG" data-animator-group="true" data-animator-type="0"><path id="r1Mqj9L8aM" d="M384.5,341.6c-2.8-1.6-4.7-2.7-6.9-4.1c4-2.8,7.4-4.3,12.1-2.1c15.8,7.3,31.8,14.5,47.8,21.3&#10;&#9;&#9;c4.9,2.1,7.1,4.8,6.7,10.2c-0.5,5.4-0.2,10.9-0.1,16.3c0.1,3.2-1.1,5.1-4.1,6.5c-33.2,15-66.3,30.2-99.4,45.3&#10;&#9;&#9;c-9,4.1-18,8.1-26.9,12.3c-2.8,1.3-5.2,1.2-8-0.1c-24.4-11.7-48.9-23.2-73.3-34.8c-19.7-9.3-39.3-18.7-59-27.9&#10;&#9;&#9;c-4.2-1.9-5.9-4.5-5.6-9.1c0.3-5.8,0.1-11.6,0.1-17.5c0-2.9,1.2-4.7,3.9-5.8c17-6.8,34.1-13.6,51-20.6c4.1-1.7,7.3-0.2,11.1,2.4&#10;&#9;&#9;c-2.1,1.3-3.9,2.3-6.2,3.8c1.6,1,2.7,1.9,4,2.5c24.4,11.6,48.9,23.2,73.3,34.9c2.9,1.4,5.3,0.8,7.9-0.4c13-6,26-11.9,39-17.9&#10;&#9;&#9;c9.5-4.4,19.1-8.8,28.6-13.2C381.6,343.2,382.7,342.6,384.5,341.6z"/></g>
	<g id="BkQ9s58ITz_SkCy2ULTG" data-animator-group="true" data-animator-type="0"><path id="BkQ9s58ITz" d="M397,346.5c0,3.3999999999999773,0,6.800000000000011,0,10.199999999999989c0,2.6000000000000227,-1.1999999999999886,4.199999999999989,-3.5,5.300000000000011c-26.69999999999999,12.199999999999989,-53.39999999999998,24.30000000000001,-80,36.60000000000002c-3.6000000000000227,1.6999999999999886,-6.800000000000011,1.5,-10.399999999999977,-0.30000000000001137c-27.899999999999977,-13.399999999999977,-55.900000000000006,-26.600000000000023,-83.9,-39.89999999999998c-2.6999999999999886,-1.3000000000000114,-4.199999999999989,-3,-4.199999999999989,-6.100000000000023c0.09999999999999432,-6.600000000000023,0.09999999999999432,-13.100000000000023,0,-19.69999999999999c0,-3,1.3000000000000114,-4.600000000000023,4,-5.699999999999989c27.900000000000006,-11.199999999999989,55.79999999999998,-22.5,83.79999999999998,-33.5c1.8999999999999773,-0.6999999999999886,4.600000000000023,-0.6999999999999886,6.5,0.10000000000002274c28.100000000000023,12.300000000000011,56.19999999999999,24.80000000000001,84.30000000000001,37.30000000000001c2.3999999999999773,1.1000000000000227,3.5,2.6999999999999886,3.5,5.300000000000011c-0.10000000000002274,3.499999999999943,-0.10000000000002274,6.89999999999992,-0.10000000000002274,10.39999999999992Z"/></g>
	<g id="H14cscLI6G_SJVz6ILTM" data-animator-group="true" data-animator-type="0"><polygon id="H14cscLI6G" points="395.2,331.9 394.4,333.5 308.6,370.3 308.6,399.7 309.8,399.7 311,399.4 312.3,399 &#10;&#9;&#9;313.3,398.7 397.3,360.3 397,335.2 396.4,333.4 &#9;"/></g>
	<g id="HySciqLU6G_HkIpR8ITG" data-animator-group="true" data-animator-type="0"><polygon id="HySciqLU6G" points="442.1,359.7 441.6,360.6 394.4,381.2 308.6,418.8 308.6,448.2 310,448.3 311.4,448.2 &#10;&#9;&#9;312.9,447.7 315.5,446.6 444.3,388 444.3,365.1 443.7,362 &#9;"/></g>
	<g id="Bk85j58Lpf_H1aPkPI6z" data-animator-group="true" data-animator-type="0"><polyline id="Bk85j58Lpf" points="308.9,468.3 309.4,498.8 310.6,499 311.6,499 313.2,498.8 314.5,498.4 323.9,494.2 &#10;&#9;&#9;336.8,488.4 339.4,487.2 485.1,420.5 486.6,419.4 487.4,418.3 487.9,417.3 488.1,415.9 487.9,394.1 487.2,392.3 486,390.8 &#9;"/></g>
	<g id="rywqsqLLpz_H14HyPIaM" data-animator-group="true" data-animator-type="0"><polyline id="rywqsqLLpz" points="308.9,468.3 309.4,498.8 308.2,498.6 306.4,498 303.3,496.6 297.9,494.1 289.4,490 &#10;&#9;&#9;276.6,484 274,482.8 126.9,412.9 125.3,411.8 124.5,410.7 124.1,409.7 123.9,408.3 123.9,386.9 124.1,385.8 124.4,385 124.9,384.1 &#10;&#9;&#9;125.4,383.5 125.8,383.2 &#9;"/></g>
	<g id="H1dqic8U6f_rkX5TLL6z" data-animator-group="true" data-animator-type="0"><polygon id="H1dqic8U6f" points="216.7,328.3 217.1,329.3 308.6,370.3 308.6,399.7 307.1,399.7 306,399.4 304.6,399 &#10;&#9;&#9;303.6,398.7 219.8,358.8 217,357.2 215.7,355.7 215.2,354.5 215,352.9 215,332.1 215.1,331.2 215.3,330.4 215.6,329.6 216.1,329 &#9;&#10;&#9;&#9;"/></g>
	<g id="ByKcs5LLaG_rkpL0U8TG" data-animator-group="true" data-animator-type="0"><polyline id="ByKcs5LLaG" points="308.6,418.8 308.6,448.2 306.9,447.8 304.5,446.7 298.3,443.8 295.7,442.5 &#10;&#9;&#9;171.9,383.8 170.3,382.6 168.9,380.9 168.1,379.1 167.8,377.3 167.9,357.4 168.1,356.1 168.5,355 169.2,354.1 170.4,353 &#10;&#9;&#9;171.7,355.3 &#9;"/></g>
</g>
<script>(function(){var a=document.querySelector('#Hy5s98I6M'),b=a.querySelectorAll('style'),c=function(d){b.forEach(function(f){var g=f.textContent;g&amp;&amp;(f.textContent=g.replace(/transform-box:[^;\r\n]*/gi,'transform-box: '+d))})};c('initial'),window.requestAnimationFrame(function(){return c('fill-box')})})();</script></svg>